<svg width="1440" height="561" viewBox="0 0 1440 561" fill="none" xmlns="http://www.w3.org/2000/svg">
<path d="M1439 458L-1.00005 458L-1.00005 23.9128C-1.00005 23.9128 202.5 77.7165 661 23.9128C1119.5 -29.891 1439 23.9128 1439 23.9128L1439 458Z" fill="#C4C4C4"/>
<path d="M1439 458L-1.00005 458L-1.00005 23.9128C-1.00005 23.9128 202.5 77.7165 661 23.9128C1119.5 -29.891 1439 23.9128 1439 23.9128L1439 458Z" fill="url(#paint0_linear)"/>
<mask id="mask0" mask-type="alpha" maskUnits="userSpaceOnUse" x="-1" y="221" width="1440" height="238">
<rect x="-1" y="221.001" width="1440" height="237" fill="#C4C4C4"/>
</mask>
<g mask="url(#mask0)">
<path d="M639.5 406.501C343.1 462.901 69.3333 410.334 -30.5 377.001V528.501L1480 506.501C1575 512.668 1708 501.301 1480 406.501C1195 288.001 1010 336.001 639.5 406.501Z" fill="#D2EDFF" fill-opacity="0.12"/>
</g>
<mask id="mask1" mask-type="alpha" maskUnits="userSpaceOnUse" x="-25" y="242" width="1512" height="320">
<path d="M408.857 413.684C207.723 429.488 35.8132 376.996 -25 348.775V454.323L174.434 561.001L1487 454.323V366.836C1434.68 326.762 1285.27 245.709 1106.13 242.097C882.2 237.581 660.273 393.929 408.857 413.684Z" fill="#D3E5FF" fill-opacity="0.12"/>
</mask>
<g mask="url(#mask1)">
<rect x="-1" y="221.001" width="1440" height="237" fill="#C4C4C4"/>
</g>
<defs>
<linearGradient id="paint0_linear" x1="719" y1="458" x2="719" y2="23.9131" gradientUnits="userSpaceOnUse">
<stop stop-color="#55BBFF" stop-opacity="0.94"/>
<stop offset="1" stop-color="#0D4FD7" stop-opacity="0.79"/>
</linearGradient>
</defs>
</svg>
